<svg width="24" height="24" viewBox="0 0 24 24" fill="none" xmlns="http://www.w3.org/2000/svg">
<g clip-path="url(#clip0_418_16)">
<path d="M0.9375 16.2656V7.82812" stroke="#F4BD14" stroke-width="1.875" stroke-miterlimit="10" stroke-linecap="round" stroke-linejoin="round"/>
<path d="M15.9375 14.8594H0.9375" stroke="#F4BD14" stroke-width="1.875" stroke-miterlimit="10" stroke-linecap="round" stroke-linejoin="round"/>
<path d="M23.0625 14.8594H20.625" stroke="#F4BD14" stroke-width="1.875" stroke-miterlimit="10" stroke-linecap="round" stroke-linejoin="round"/>
<path d="M23.0625 7.82812V16.2656" stroke="#F4BD14" stroke-width="1.875" stroke-miterlimit="10" stroke-linecap="round" stroke-linejoin="round"/>
<path d="M0.9375 9.23438H23.0625" stroke="#F4BD14" stroke-width="1.875" stroke-miterlimit="10" stroke-linecap="round" stroke-linejoin="round"/>
<path d="M12.9375 0.9375C12.9375 1.45528 12.5178 1.875 12 1.875C11.4822 1.875 11.0625 1.45528 11.0625 0.9375C11.0625 0.419719 11.4822 2.98023e-07 12 2.98023e-07C12.5178 2.98023e-07 12.9375 0.419719 12.9375 0.9375Z" fill="#F4BD14"/>
<path d="M12.9375 4.21875C12.9375 4.73653 12.5178 5.15625 12 5.15625C11.4822 5.15625 11.0625 4.73653 11.0625 4.21875C11.0625 3.70097 11.4822 3.28125 12 3.28125C12.5178 3.28125 12.9375 3.70097 12.9375 4.21875Z" fill="#F4BD14"/>
<path d="M16.1719 4.6875C16.1719 5.20528 15.7522 5.625 15.2344 5.625C14.7166 5.625 14.2969 5.20528 14.2969 4.6875C14.2969 4.16972 14.7166 3.75 15.2344 3.75C15.7522 3.75 16.1719 4.16972 16.1719 4.6875Z" fill="#F4BD14"/>
<path d="M17.5312 1.6875C17.5312 2.20528 17.1115 2.625 16.5937 2.625C16.076 2.625 15.6562 2.20528 15.6562 1.6875C15.6562 1.16972 16.076 0.75 16.5937 0.75C17.1115 0.75 17.5312 1.16972 17.5312 1.6875Z" fill="#F4BD14"/>
<path d="M8.34375 1.6875C8.34375 1.16972 7.92403 0.75 7.40625 0.75C6.88847 0.75 6.46875 1.16972 6.46875 1.6875C6.46875 2.20528 6.88847 2.625 7.40625 2.625C7.92403 2.625 8.34375 2.20528 8.34375 1.6875Z" fill="#F4BD14"/>
<path d="M9.70312 4.6875C9.70312 4.16972 9.28341 3.75 8.76562 3.75C8.24784 3.75 7.82812 4.16972 7.82812 4.6875C7.82812 5.20528 8.24784 5.625 8.76562 5.625C9.28341 5.625 9.70312 5.20528 9.70312 4.6875Z" fill="#F4BD14"/>
<path d="M12.9375 23.0625C12.9375 22.5447 12.5178 22.125 12 22.125C11.4822 22.125 11.0625 22.5447 11.0625 23.0625C11.0625 23.5803 11.4822 24 12 24C12.5178 24 12.9375 23.5803 12.9375 23.0625Z" fill="#F4BD14"/>
<path d="M12.9375 19.7813C12.9375 19.2635 12.5178 18.8438 12 18.8438C11.4822 18.8438 11.0625 19.2635 11.0625 19.7813C11.0625 20.299 11.4822 20.7188 12 20.7188C12.5178 20.7188 12.9375 20.299 12.9375 19.7813Z" fill="#F4BD14"/>
<path d="M16.1719 19.3125C16.1719 18.7947 15.7522 18.375 15.2344 18.375C14.7166 18.375 14.2969 18.7947 14.2969 19.3125C14.2969 19.8303 14.7166 20.25 15.2344 20.25C15.7522 20.25 16.1719 19.8303 16.1719 19.3125Z" fill="#F4BD14"/>
<path d="M17.5312 22.3125C17.5312 21.7947 17.1115 21.375 16.5937 21.375C16.076 21.375 15.6562 21.7947 15.6562 22.3125C15.6562 22.8303 16.076 23.25 16.5937 23.25C17.1115 23.25 17.5312 22.8303 17.5312 22.3125Z" fill="#F4BD14"/>
<path d="M8.34375 22.3125C8.34375 22.8303 7.92403 23.25 7.40625 23.25C6.88847 23.25 6.46875 22.8303 6.46875 22.3125C6.46875 21.7947 6.88847 21.375 7.40625 21.375C7.92403 21.375 8.34375 21.7947 8.34375 22.3125Z" fill="#F4BD14"/>
<path d="M9.70312 19.3125C9.70312 19.8303 9.28341 20.25 8.76562 20.25C8.24784 20.25 7.82812 19.8303 7.82812 19.3125C7.82812 18.7947 8.24784 18.375 8.76562 18.375C9.28341 18.375 9.70312 18.7947 9.70312 19.3125Z" fill="#F4BD14"/>
<path d="M14.6719 9.28125L9.16406 14.7891" stroke="#F4BD14" stroke-width="1.875" stroke-miterlimit="10" stroke-linecap="round" stroke-linejoin="round"/>
</g>
<defs>
<clipPath id="clip0_418_16">
<rect width="24" height="24" fill="white"/>
</clipPath>
</defs>
</svg>
