<svg width="24" height="24" viewBox="0 0 24 24" fill="none" xmlns="http://www.w3.org/2000/svg">
<g clip-path="url(#clip0_427_2)">
<path d="M4.73026 3.6173C4.42617 3.19906 4.5188 2.6138 4.93658 2.31017C5.3544 2.00608 5.93962 2.09824 6.24371 2.51602C6.5478 2.93379 6.45564 3.51906 6.03739 3.82315C5.87131 3.94432 5.67856 4.00233 5.48769 4.00233C5.19861 4.00233 4.91365 3.86853 4.73026 3.6173ZM1.18505 9.47465C1.28096 9.50552 1.37827 9.52049 1.47417 9.52049C1.86856 9.52049 2.23534 9.26927 2.364 8.87395C2.52353 8.38225 2.25452 7.85453 1.7633 7.695C1.27207 7.535 0.743883 7.80401 0.584398 8.29523C0.424305 8.78688 0.69331 9.3146 1.18505 9.47465ZM8.5637 2.43279C8.65961 2.43279 8.75692 2.41782 8.85283 2.38647C9.34405 2.22694 9.61357 1.69922 9.45353 1.20753C9.29404 0.716302 8.76674 0.447296 8.2751 0.606828C7.7834 0.76636 7.5144 1.29408 7.67388 1.78577C7.80254 2.18105 8.16937 2.43227 8.5637 2.43279ZM2.49354 6.26525C2.66009 6.38642 2.85237 6.44443 3.04371 6.44443C3.33237 6.44443 3.6178 6.3111 3.80072 6.0594C4.10481 5.64163 4.0126 5.05636 3.59487 4.75227C3.17714 4.44818 2.59183 4.54034 2.28774 4.95812C1.9836 5.37589 2.07581 5.96116 2.49354 6.26525ZM0.0182238 12.1829C0.0243057 12.2124 0.0317911 12.2423 0.0406799 12.2718C0.049522 12.3008 0.0598144 12.3298 0.0715103 12.3579C0.0832062 12.3859 0.0963056 12.414 0.110855 12.4407C0.12489 12.4673 0.140797 12.494 0.157639 12.5193C0.174434 12.545 0.192726 12.5698 0.212376 12.5932C0.231557 12.617 0.252563 12.64 0.274083 12.6615C0.295603 12.683 0.318527 12.7041 0.342387 12.7232C0.365779 12.7424 0.390574 12.7611 0.416305 12.778C0.441568 12.7948 0.468235 12.8107 0.494948 12.8248C0.521568 12.8393 0.549685 12.8524 0.577755 12.8641C0.605872 12.8758 0.634831 12.8861 0.663837 12.8949C0.69331 12.9038 0.722831 12.9113 0.752725 12.9174C0.78262 12.9235 0.813544 12.9277 0.843439 12.931C0.874316 12.9342 0.905193 12.9356 0.935649 12.9356C0.966011 12.9356 0.996935 12.9342 1.02781 12.931C1.05775 12.9277 1.08863 12.9235 1.11857 12.9174C1.14805 12.9113 1.17799 12.9038 1.20741 12.8949C1.23642 12.8861 1.26543 12.8758 1.2935 12.8641C1.32161 12.8524 1.34964 12.8393 1.37635 12.8248C1.40302 12.8107 1.42968 12.7948 1.45495 12.778C1.48068 12.7611 1.50547 12.7424 1.52886 12.7232C1.55272 12.7041 1.57565 12.683 1.59717 12.6615C1.61869 12.64 1.63974 12.617 1.65892 12.5932C1.6781 12.5698 1.69682 12.545 1.71366 12.5193C1.7305 12.494 1.74641 12.4673 1.76044 12.4407C1.77495 12.414 1.78804 12.3859 1.79974 12.3579C1.81144 12.3298 1.82173 12.3008 1.83062 12.2718C1.83946 12.2423 1.84699 12.2124 1.85303 12.1829C1.85916 12.153 1.86337 12.1221 1.86659 12.0921C1.86945 12.0613 1.87132 12.0304 1.87132 12C1.87132 11.9696 1.86945 11.9387 1.86659 11.9078C1.86337 11.8779 1.85916 11.847 1.85303 11.8171C1.84695 11.7876 1.83946 11.7576 1.83062 11.7282C1.82173 11.6992 1.81144 11.6702 1.79974 11.6421C1.78804 11.614 1.77495 11.5859 1.76044 11.5593C1.74641 11.5326 1.7305 11.5059 1.71366 11.4807C1.69682 11.4549 1.6781 11.4302 1.65892 11.4068C1.63974 11.3829 1.61869 11.36 1.59717 11.3385C1.57565 11.3169 1.55272 11.2959 1.52886 11.2767C1.50547 11.2571 1.48068 11.2388 1.45495 11.222C1.42968 11.2051 1.40306 11.1892 1.37635 11.1752C1.34968 11.1607 1.32161 11.1476 1.2935 11.1359C1.26543 11.1242 1.23642 11.1139 1.20741 11.105C1.17794 11.0961 1.148 11.0886 1.11857 11.0825C1.08858 11.0765 1.05771 11.0723 1.02781 11.069C0.966526 11.0629 0.904772 11.0629 0.843485 11.069C0.813544 11.0723 0.782667 11.0765 0.752772 11.0825C0.722831 11.0886 0.69331 11.0961 0.663883 11.105C0.634878 11.1139 0.605919 11.1242 0.577802 11.1359C0.549732 11.1476 0.521661 11.1607 0.494995 11.1752C0.468328 11.1892 0.441615 11.2051 0.416352 11.222C0.390621 11.2388 0.365826 11.2571 0.342434 11.2767C0.318574 11.2959 0.29565 11.3169 0.27413 11.3385C0.252609 11.36 0.231604 11.3829 0.212422 11.4068C0.192773 11.4302 0.174481 11.4549 0.157686 11.4807C0.140843 11.5059 0.124937 11.5326 0.110902 11.5593C0.0963524 11.5859 0.083253 11.614 0.0715571 11.6421C0.0598612 11.6702 0.0495688 11.6992 0.0407267 11.7282C0.0318379 11.7576 0.0243057 11.7876 0.0182706 11.8171C0.0121888 11.847 0.0075572 11.8779 0.00470341 11.9078C0.00142856 11.9387 2.50532e-05 11.9696 2.50532e-05 12C2.50532e-05 12.0304 0.00138178 12.0613 0.00470341 12.0921C0.00751042 12.1221 0.012142 12.153 0.0182238 12.1829ZM23.0643 2.17548C22.5475 2.17548 22.1286 2.59438 22.1286 3.11115V5.64237C21.2028 4.16542 19.963 2.90353 18.4868 1.94582C16.5482 0.688185 14.297 0.0234375 11.9766 0.0234375C11.9414 0.0234375 11.9067 0.0257767 11.8725 0.0295661C11.8474 0.0323264 11.822 0.0361158 11.7971 0.0410749C11.6947 0.0609579 11.5987 0.0978233 11.5112 0.148162C11.4954 0.157145 11.4799 0.166548 11.4647 0.17642C11.4331 0.197145 11.4027 0.219601 11.3739 0.243928C11.3548 0.259881 11.3362 0.276724 11.3187 0.294174C11.3163 0.296513 11.314 0.298899 11.3116 0.301238C11.2943 0.318688 11.2776 0.337121 11.2618 0.356115C11.237 0.385448 11.2141 0.416372 11.1931 0.448653C11.1836 0.463296 11.1746 0.478267 11.1659 0.493425C11.1155 0.581004 11.0786 0.677144 11.0586 0.779647C11.0537 0.804535 11.0499 0.829845 11.0471 0.854875C11.0466 0.858991 11.046 0.863062 11.0456 0.867179C11.0423 0.898009 11.041 0.928792 11.041 0.959155C11.041 0.989471 11.0423 1.0203 11.0456 1.05108C11.046 1.05525 11.0466 1.05937 11.0472 1.06353C11.0499 1.08846 11.0537 1.11373 11.0586 1.13848C11.0785 1.24103 11.1155 1.33731 11.1659 1.42493C11.1745 1.4399 11.1834 1.45464 11.1928 1.4691C11.214 1.5017 11.2371 1.53291 11.262 1.56252C11.2777 1.58124 11.2942 1.59939 11.3112 1.6166C11.3139 1.61927 11.3165 1.62194 11.3192 1.6246C11.3366 1.64182 11.355 1.65852 11.3739 1.67429C11.3788 1.67845 11.3837 1.68252 11.3887 1.68659C11.4058 1.70044 11.4237 1.71377 11.442 1.7265C11.4498 1.73193 11.4577 1.73726 11.4656 1.7425C11.4804 1.75209 11.4955 1.76121 11.5109 1.76996C11.5987 1.82053 11.6952 1.85749 11.798 1.87742C11.8224 1.88224 11.8472 1.88598 11.8717 1.88865C11.8763 1.88916 11.8808 1.88982 11.8854 1.89029C11.916 1.89347 11.9465 1.89487 11.9766 1.89487C15.5152 1.89487 18.7987 3.77216 20.6168 6.75713L18.4781 6.76036C17.9613 6.76116 17.5431 7.18066 17.5439 7.69743C17.5446 8.21374 17.9634 8.6317 18.4795 8.6317C18.48 8.6317 18.4805 8.6317 18.4809 8.6317L21.218 8.62758C21.221 8.62758 21.224 8.62758 21.2271 8.62758C21.9673 8.62758 22.6608 8.34178 23.1804 7.82207C23.712 7.29046 24.0031 6.57678 24 5.81641V3.11115C24 2.59438 23.581 2.17548 23.0643 2.17548ZM22.8149 14.5258C22.3237 14.3658 21.7955 14.6348 21.636 15.1261C21.4764 15.6177 21.745 16.1455 22.2367 16.3055C22.3326 16.3363 22.4304 16.3513 22.5262 16.3513C22.9206 16.3513 23.2874 16.1001 23.4156 15.7048C23.5751 15.2131 23.3066 14.6853 22.8149 14.5258ZM15.1471 21.6135C14.6554 21.7731 14.3864 22.3008 14.5459 22.7925C14.6746 23.1878 15.0414 23.4395 15.4357 23.4395C15.5317 23.4395 15.629 23.4245 15.7249 23.3932C16.2166 23.2336 16.4856 22.7059 16.3261 22.2147C16.1665 21.723 15.6388 21.454 15.1471 21.6135ZM21.5064 17.7347C21.0886 17.4306 20.5034 17.5228 20.1993 17.9405C19.8952 18.3583 19.9869 18.9436 20.4047 19.2477C20.5713 19.3684 20.764 19.4269 20.9549 19.4269C21.244 19.4269 21.5289 19.2935 21.7123 19.0418C22.0158 18.6241 21.9241 18.0388 21.5064 17.7347ZM17.962 20.1768C17.5443 20.4809 17.4522 21.0662 17.7562 21.4839C17.9396 21.7356 18.2246 21.869 18.5136 21.869C18.7045 21.869 18.8973 21.8109 19.0633 21.6898C19.4812 21.3857 19.5733 20.8004 19.2692 20.3826C18.9656 19.9649 18.3803 19.8727 17.962 20.1768ZM23.9817 11.8171C23.9756 11.7876 23.9681 11.7576 23.9593 11.7282C23.9504 11.6992 23.9401 11.6702 23.9284 11.6421C23.9167 11.614 23.9036 11.5859 23.8891 11.5593C23.8746 11.5326 23.8592 11.5059 23.8423 11.4807C23.8255 11.4549 23.8068 11.4302 23.7876 11.4068C23.7684 11.3829 23.7473 11.36 23.7258 11.3385C23.7043 11.3169 23.6814 11.2959 23.6575 11.2767C23.6341 11.2575 23.6093 11.2388 23.5836 11.222C23.5583 11.2051 23.5317 11.1892 23.505 11.1752C23.4783 11.1607 23.4503 11.1476 23.4222 11.1359C23.3941 11.1242 23.3651 11.1139 23.3361 11.105C23.3066 11.0961 23.2767 11.0886 23.2472 11.0825C23.2172 11.0765 23.1864 11.0723 23.1565 11.069C23.0952 11.0629 23.0334 11.0629 22.9721 11.069C22.9422 11.0723 22.9113 11.0765 22.8814 11.0825C22.852 11.0886 22.822 11.0961 22.7925 11.105C22.7635 11.1139 22.7346 11.1242 22.7065 11.1359C22.6784 11.1476 22.6503 11.1607 22.6237 11.1752C22.597 11.1892 22.5703 11.2051 22.545 11.222C22.5193 11.2388 22.4945 11.2575 22.4711 11.2767C22.4472 11.2959 22.4243 11.3169 22.4028 11.3385C22.3813 11.36 22.3603 11.3829 22.3411 11.4068C22.3214 11.4302 22.3031 11.4549 22.2863 11.4807C22.2695 11.5059 22.2536 11.5326 22.2396 11.5593C22.225 11.5859 22.2119 11.614 22.2002 11.6421C22.1885 11.6702 22.1782 11.6992 22.1694 11.7282C22.1605 11.7576 22.153 11.7876 22.1469 11.8171C22.1408 11.847 22.1362 11.8779 22.1334 11.9078C22.1301 11.9387 22.1287 11.9696 22.1287 12C22.1287 12.2461 22.2283 12.4875 22.4028 12.6615C22.4243 12.683 22.4472 12.7041 22.4711 12.7232C22.4945 12.7424 22.5193 12.7611 22.545 12.778C22.5703 12.7948 22.5969 12.8107 22.6237 12.8248C22.6503 12.8393 22.6784 12.8524 22.7065 12.8641C22.7346 12.8758 22.7635 12.8861 22.7925 12.8949C22.822 12.9038 22.852 12.9113 22.8814 12.9174C22.9114 12.9235 22.9422 12.9282 22.9721 12.931C23.003 12.9342 23.0339 12.9356 23.0644 12.9356C23.0947 12.9356 23.1256 12.9342 23.1565 12.931C23.1865 12.9282 23.2173 12.9235 23.2473 12.9174C23.2768 12.9113 23.3067 12.9038 23.3361 12.8949C23.3651 12.8861 23.3941 12.8758 23.4222 12.8641C23.4503 12.8524 23.4783 12.8393 23.5051 12.8248C23.5317 12.8107 23.5584 12.7948 23.5837 12.778C23.6094 12.7611 23.6342 12.7424 23.6576 12.7232C23.6814 12.7041 23.7044 12.683 23.7259 12.6615C23.8999 12.4875 24 12.2465 24 12C24 11.9696 23.9982 11.9387 23.9953 11.9078C23.992 11.8779 23.9878 11.847 23.9817 11.8171ZM12.9591 23.0409C12.9591 23.0111 12.9577 22.9809 12.9545 22.9507C12.954 22.9455 12.9533 22.9405 12.9527 22.9353C12.9501 22.9114 12.9464 22.8872 12.9417 22.8633C12.9219 22.7601 12.8848 22.6632 12.8341 22.5751C12.8255 22.5601 12.8167 22.5455 12.8073 22.531C12.8017 22.5225 12.7961 22.5141 12.7902 22.5057C12.7779 22.4879 12.765 22.4706 12.7515 22.4539C12.747 22.4484 12.7425 22.4429 12.7378 22.4374C12.7225 22.419 12.7064 22.4013 12.6897 22.3844C12.6865 22.3811 12.6831 22.3778 12.6799 22.3746C12.6631 22.358 12.6454 22.342 12.6272 22.3268C12.6214 22.3219 12.6156 22.3171 12.6097 22.3123C12.5933 22.2991 12.5763 22.2864 12.5587 22.2742C12.5503 22.2683 12.5418 22.2626 12.5331 22.2569C12.5188 22.2476 12.5042 22.2388 12.4894 22.2303C12.4012 22.1795 12.3043 22.1424 12.201 22.1226C12.1776 22.118 12.1538 22.1146 12.1303 22.1118C12.0952 22.1078 12.0596 22.1053 12.0233 22.1053C8.48464 22.1053 5.20123 20.228 3.38308 17.243L5.52179 17.2398C6.03856 17.239 6.45681 16.8194 6.45606 16.3027C6.45526 15.7864 6.0365 15.3684 5.52044 15.3684C5.51992 15.3684 5.51945 15.3684 5.51898 15.3684L2.78196 15.3726C2.77897 15.3726 2.77588 15.3726 2.77284 15.3726C2.03254 15.3726 1.3392 15.6584 0.819532 16.1781C0.287978 16.7096 -0.00310944 17.4233 2.50532e-05 18.1837V20.8888C2.50532e-05 21.4056 0.418925 21.8245 0.935696 21.8245C1.45247 21.8245 1.87137 21.4056 1.87137 20.8888V18.3577C2.79717 19.8347 4.03698 21.0965 5.51318 22.0542C7.45138 23.3115 9.70199 23.9763 12.0219 23.9766C12.0224 23.9766 12.0229 23.9766 12.0234 23.9766C12.0538 23.9766 12.0845 23.9752 12.1154 23.9719C12.1195 23.9715 12.1236 23.9709 12.1278 23.9704C12.1527 23.9677 12.1781 23.9639 12.2029 23.959C12.3054 23.939 12.4015 23.9022 12.489 23.8518C12.5043 23.843 12.5194 23.8339 12.5342 23.8243C12.5664 23.8033 12.5973 23.7805 12.6265 23.7557C12.6452 23.7402 12.6633 23.7237 12.6804 23.7068C12.6834 23.7038 12.6863 23.7009 12.6893 23.6979C12.7062 23.6807 12.7227 23.6626 12.7382 23.644C12.7426 23.6388 12.7469 23.6337 12.7512 23.6284C12.7649 23.6116 12.778 23.5939 12.7905 23.5758C12.7961 23.5678 12.8016 23.5597 12.807 23.5515C12.8166 23.5368 12.8256 23.5217 12.8343 23.5064C12.885 23.4184 12.9219 23.3217 12.9417 23.2187C12.9465 23.1948 12.9501 23.1704 12.9527 23.1464C12.9533 23.1413 12.954 23.1363 12.9545 23.1312C12.9576 23.101 12.9591 23.0707 12.9591 23.0409ZM14.0388 14.1408L13.1861 14.9872C13.1861 14.9872 12.0829 14.4959 10.8353 13.2483L10.7751 13.1882C9.52745 11.9405 9.03617 10.8374 9.03617 10.8374L9.88258 9.98459C10.8466 8.99755 10.2703 8.00433 9.31257 7.01117C8.83458 6.51545 8.04997 6.48719 7.53751 6.94717L7.52441 6.95891C6.92305 7.56031 6.63856 8.39675 6.64329 9.34393C6.65171 11.0305 7.57709 13.0682 9.26256 14.755C10.9494 16.4405 12.987 17.3659 14.6736 17.3743L14.6795 17.3801C15.6267 17.3848 16.4631 17.1004 17.0645 16.499L17.0762 16.4859C17.5362 15.9734 17.508 15.1888 17.0122 14.7108C16.0191 13.7531 15.0259 13.1768 14.0388 14.1408Z" fill="white"/>
</g>
<defs>
<clipPath id="clip0_427_2">
<rect width="24" height="24" fill="white"/>
</clipPath>
</defs>
</svg>
