<svg width="24" height="24" viewBox="0 0 24 24" fill="none" xmlns="http://www.w3.org/2000/svg">
<g clip-path="url(#clip0_418_77)">
<path d="M18.1683 6.97739C18.1683 9.07491 16.4608 10.7752 14.3545 10.7752C12.2482 10.7752 10.5408 9.07491 10.5408 6.97739C10.5408 3.6135 14.3545 0.9375 14.3545 0.9375C14.3545 0.9375 18.1683 3.6135 18.1683 6.97739Z" stroke="#F4BD14" stroke-width="1.875" stroke-miterlimit="10" stroke-linecap="round" stroke-linejoin="round"/>
<path d="M22.7137 18.3585C22.7137 16.17 20.939 14.3961 18.7505 14.397L9.94252 14.4006C8.80496 14.4006 7.88264 15.3343 7.88264 16.4858C7.88264 17.6373 8.80496 18.571 9.94252 18.571C9.18281 18.5712 8.47299 18.1929 8.04961 17.5621L4.69847 12.8027C3.99732 12.0925 2.89463 11.9928 2.07999 12.5655C1.03022 13.3032 1.11267 14.7046 1.79939 15.7375L5.50974 21.2406C6.23836 22.376 7.49471 23.0625 8.84377 23.0625H22.7137" stroke="#F4BD14" stroke-width="1.875" stroke-miterlimit="10" stroke-linecap="round" stroke-linejoin="round"/>
<path d="M9.94263 18.5711H15.4073" stroke="#F4BD14" stroke-width="1.875" stroke-miterlimit="10" stroke-linecap="round" stroke-linejoin="round"/>
</g>
<defs>
<clipPath id="clip0_418_77">
<rect width="24" height="24" fill="white"/>
</clipPath>
</defs>
</svg>
