<svg width="25" height="24" viewBox="0 0 25 24" fill="none" xmlns="http://www.w3.org/2000/svg">
<g clip-path="url(#clip0_424_2)">
<path d="M10.6401 2.8125C10.6401 1.77694 11.4796 0.937501 12.5151 0.937501C13.5507 0.937501 14.3901 1.77694 14.3901 2.8125C14.3901 3.84806 13.5507 4.6875 12.5151 4.6875C11.4796 4.6875 10.6401 3.84806 10.6401 2.8125Z" stroke="white" stroke-width="1.875" stroke-miterlimit="10" stroke-linecap="round" stroke-linejoin="round"/>
<path d="M10.6401 23.0625V18.9844C10.6401 18.1538 10.2006 17.3853 9.48471 16.9642L9.40493 16.9173C8.68906 16.4962 8.24951 15.7276 8.24951 14.8972V10.7344C8.24951 8.39152 10.1488 7.45313 12.4917 7.45313C14.8346 7.45313 16.7339 8.39152 16.7339 10.7344V14.9107C16.7339 15.7339 16.3019 16.4968 15.596 16.9204L15.528 16.9612C14.8221 17.3847 14.3901 18.1476 14.3901 18.9709V23.0625" stroke="white" stroke-width="1.875" stroke-miterlimit="10" stroke-linecap="round" stroke-linejoin="round"/>
<path d="M3.32764 4.6875C3.32764 3.65194 4.16712 2.8125 5.20264 2.8125C6.23815 2.8125 7.07764 3.65194 7.07764 4.6875C7.07764 5.72306 6.23815 6.5625 5.20264 6.5625C4.16712 6.5625 3.32764 5.72306 3.32764 4.6875Z" stroke="white" stroke-width="1.875" stroke-miterlimit="10" stroke-linecap="round" stroke-linejoin="round"/>
<path d="M7.07764 23.0625V19.7813" stroke="white" stroke-width="1.875" stroke-miterlimit="10" stroke-linecap="round" stroke-linejoin="round"/>
<path d="M3.32764 23.0625V19.7813C3.32764 19.0435 2.98029 18.3488 2.39014 17.9063C1.79998 17.4637 1.45264 16.769 1.45264 16.0313V12.0469C1.45264 10.0276 3.08961 9.35156 5.10889 9.35156" stroke="white" stroke-width="1.875" stroke-miterlimit="10" stroke-linecap="round" stroke-linejoin="round"/>
<path d="M21.7026 4.6875C21.7026 3.65194 20.8632 2.8125 19.8276 2.8125C18.7921 2.8125 17.9526 3.65194 17.9526 4.6875C17.9526 5.72306 18.7921 6.5625 19.8276 6.5625C20.8632 6.5625 21.7026 5.72306 21.7026 4.6875Z" stroke="white" stroke-width="1.875" stroke-miterlimit="10" stroke-linecap="round" stroke-linejoin="round"/>
<path d="M17.9526 23.0625V19.7813" stroke="white" stroke-width="1.875" stroke-miterlimit="10" stroke-linecap="round" stroke-linejoin="round"/>
<path d="M21.7026 23.0625V19.7813C21.7026 19.0435 22.05 18.3488 22.6401 17.9063C23.2303 17.4637 23.5776 16.769 23.5776 16.0313V12.0469C23.5776 10.0276 21.9407 9.35156 19.9214 9.35156" stroke="white" stroke-width="1.875" stroke-miterlimit="10" stroke-linecap="round" stroke-linejoin="round"/>
</g>
<defs>
<clipPath id="clip0_424_2">
<rect width="24" height="24" fill="white" transform="translate(0.515137)"/>
</clipPath>
</defs>
</svg>
