<svg width="25" height="24" viewBox="0 0 25 24" fill="none" xmlns="http://www.w3.org/2000/svg">
<g clip-path="url(#clip0_415_2)">
<path d="M22.4545 18.6872C23.4586 20.0499 23.5747 20.7339 23.5747 21.13V21.1875C23.5747 21.7053 23.155 22.125 22.6372 22.125C22.1194 22.125 21.6997 21.7053 21.6997 21.1875V21.1353C21.6962 21.1073 21.6369 20.7303 20.9158 19.76C20.8642 19.6906 20.8127 19.6229 20.7622 19.5575C20.7086 19.6267 20.6542 19.6985 20.5996 19.7719C19.887 20.7336 19.8282 21.1073 19.8247 21.1353V21.1875C19.8247 21.7044 20.2453 22.125 20.7622 22.125C21.28 22.125 21.6997 22.5447 21.6997 23.0625C21.6997 23.5803 21.28 24 20.7622 24C19.2113 24 17.9497 22.7384 17.9497 21.1875V21.13C17.9497 20.7339 18.0658 20.0499 19.0699 18.6872C19.5621 18.0189 20.0494 17.484 20.0699 17.4615C20.2475 17.267 20.4989 17.1562 20.7622 17.1562C21.0255 17.1562 21.2769 17.267 21.4545 17.4617C21.475 17.484 21.9621 18.0189 22.4545 18.6872V18.6872ZM24.5122 14.5312C24.5122 15.0491 24.0925 15.4688 23.5747 15.4688H17.9497C17.4319 15.4688 17.0122 15.0491 17.0122 14.5312C17.0122 14.0134 17.4319 13.5938 17.9497 13.5938V9.84375H15.231V19.3125C15.231 21.8972 13.1282 24 10.5435 24H6.13721C3.55249 24 1.44971 21.8972 1.44971 19.3125V1.875C0.931885 1.875 0.512207 1.45532 0.512207 0.9375C0.512207 0.419678 0.931885 0 1.44971 0H7.07471C7.59253 0 8.01221 0.419678 8.01221 0.9375C8.01221 1.45532 7.59253 1.875 7.07471 1.875V18.5625H9.60596V8.90625C9.60596 6.32153 11.7087 4.21875 14.2935 4.21875H18.8872C21.4719 4.21875 23.5747 6.32153 23.5747 8.90625V13.5938C24.0925 13.5938 24.5122 14.0134 24.5122 14.5312ZM3.32471 1.875V13.5469H5.19971V1.875H3.32471ZM13.356 19.3125V15.4688H11.481V19.5C11.481 20.0178 11.0613 20.4375 10.5435 20.4375H6.13721C5.61938 20.4375 5.19971 20.0178 5.19971 19.5V15.4219H3.32471V19.3125C3.32471 20.8634 4.5863 22.125 6.13721 22.125H10.5435C12.0944 22.125 13.356 20.8634 13.356 19.3125ZM19.8247 8.90625V13.5938H21.6997V8.90625C21.6997 7.35535 20.4381 6.09375 18.8872 6.09375H14.2935C12.7426 6.09375 11.481 7.35535 11.481 8.90625V13.5938H13.356V8.90625C13.356 8.38843 13.7756 7.96875 14.2935 7.96875H18.8872C19.405 7.96875 19.8247 8.38843 19.8247 8.90625Z" fill="#F4BD14"/>
</g>
<defs>
<clipPath id="clip0_415_2">
<rect width="24" height="24" fill="white" transform="translate(0.512207)"/>
</clipPath>
</defs>
</svg>
