<svg width="123" height="36" viewBox="0 0 123 36" fill="none" xmlns="http://www.w3.org/2000/svg">
<path d="M108.853 9V2.94H108.673L107.733 5.16H106.393L107.823 2H110.133V9H108.853ZM111.214 9V8.16C111.214 7.67333 111.294 7.27 111.454 6.95C111.614 6.62333 111.844 6.35667 112.144 6.15C112.451 5.93667 112.824 5.76333 113.264 5.63L113.934 5.42C114.181 5.34 114.388 5.24333 114.554 5.13C114.721 5.01 114.848 4.86667 114.934 4.7C115.028 4.53333 115.074 4.34333 115.074 4.13V4.09C115.074 3.75667 114.961 3.49333 114.734 3.3C114.508 3.1 114.198 3 113.804 3C113.418 3 113.104 3.10667 112.864 3.32C112.631 3.52667 112.514 3.82667 112.514 4.22V4.4H111.234V4.24C111.234 3.73333 111.348 3.30333 111.574 2.95C111.801 2.59667 112.108 2.32667 112.494 2.14C112.888 1.95333 113.324 1.86 113.804 1.86C114.284 1.86 114.718 1.95333 115.104 2.14C115.491 2.32 115.794 2.57667 116.014 2.91C116.241 3.23667 116.354 3.62333 116.354 4.07V4.17C116.354 4.61667 116.261 4.99667 116.074 5.31C115.894 5.61667 115.648 5.87 115.334 6.07C115.021 6.26333 114.664 6.42333 114.264 6.55L113.624 6.75C113.338 6.83667 113.114 6.93333 112.954 7.04C112.794 7.14 112.681 7.25333 112.614 7.38C112.554 7.5 112.524 7.64667 112.524 7.82V7.86H116.294V9H111.214ZM119.732 9.14C119.198 9.14 118.725 9.06 118.312 8.9C117.905 8.74 117.585 8.51 117.352 8.21C117.125 7.90333 117.012 7.54333 117.012 7.13V7.01C117.012 6.69 117.068 6.42667 117.182 6.22C117.295 6.00667 117.435 5.84 117.602 5.72C117.775 5.6 117.938 5.51667 118.092 5.47V5.29C117.938 5.23667 117.785 5.15 117.632 5.03C117.478 4.91 117.352 4.75 117.252 4.55C117.158 4.35 117.112 4.11 117.112 3.83V3.71C117.112 3.34333 117.218 3.02333 117.432 2.75C117.652 2.47 117.958 2.25333 118.352 2.1C118.745 1.94 119.205 1.86 119.732 1.86C120.258 1.86 120.718 1.94 121.112 2.1C121.505 2.25333 121.808 2.47 122.022 2.75C122.242 3.02333 122.352 3.34333 122.352 3.71V3.83C122.352 4.11 122.302 4.35 122.202 4.55C122.108 4.75 121.985 4.91 121.832 5.03C121.685 5.15 121.532 5.23667 121.372 5.29V5.47C121.532 5.51667 121.695 5.6 121.862 5.72C122.028 5.84 122.168 6.00667 122.282 6.22C122.395 6.42667 122.452 6.69 122.452 7.01V7.13C122.452 7.54333 122.335 7.90333 122.102 8.21C121.875 8.51 121.555 8.74 121.142 8.9C120.735 9.06 120.265 9.14 119.732 9.14ZM119.732 8C120.192 8 120.545 7.91333 120.792 7.74C121.045 7.56 121.172 7.32333 121.172 7.03V6.95C121.172 6.65667 121.048 6.42333 120.802 6.25C120.562 6.07 120.205 5.98 119.732 5.98C119.265 5.98 118.908 6.07 118.662 6.25C118.415 6.42333 118.292 6.65667 118.292 6.95V7.03C118.292 7.32333 118.415 7.56 118.662 7.74C118.915 7.91333 119.272 8 119.732 8ZM119.732 4.84C120.158 4.84 120.488 4.76333 120.722 4.61C120.955 4.45667 121.072 4.24 121.072 3.96V3.88C121.072 3.6 120.952 3.38333 120.712 3.23C120.472 3.07667 120.145 3 119.732 3C119.318 3 118.992 3.07667 118.752 3.23C118.512 3.38333 118.392 3.6 118.392 3.88V3.96C118.392 4.24 118.508 4.45667 118.742 4.61C118.975 4.76333 119.305 4.84 119.732 4.84Z" fill="black"/>
<path d="M0.224121 10.2978H8.67923C8.81265 9.9703 8.88056 9.61138 8.86914 9.24069C8.84358 8.3914 9.1726 7.54506 9.77405 6.89993C8.86741 6.78619 13.5185 6.85769 0.224122 6.83559L0.224121 10.2978ZM16.9674 12.4684C16.9674 10.1152 15.1715 8.04085 11.6284 7.35798C11.4684 7.60288 11.2839 7.83225 11.0769 8.04085C10.761 8.35921 10.5869 8.77664 10.5995 9.18818C10.6141 9.67232 10.5481 10.1465 10.4084 10.5984C13.4215 11.5 14.0048 12.6667 12.9889 14.4746C13.5331 15.2354 13.8293 16.1682 13.7961 17.1415C13.7819 17.5547 13.9287 17.9388 14.1985 18.1978C14.2472 18.2445 14.2944 18.2927 14.3406 18.3415C15.9554 16.8391 17.5048 15.9339 16.9674 12.4684Z" fill="black"/>
<path d="M0.224121 20.5454H4.60346H7.79528C9.32825 20.5454 11.7137 20.1232 12.9435 19.3898C12.3556 18.7935 12.0357 17.9571 12.066 17.0825C12.0798 16.6758 11.9984 16.2854 11.8412 15.9339C11.0081 16.6493 8.97701 17.0831 7.79528 17.0831H0.224121V20.5454Z" fill="black"/>
<path d="M4.60346 20.4706H0.224121V6.83334H4.60346V20.4706Z" fill="black"/>
<path d="M0.224121 20.5454V29H4.60346V20.5454H0.224121Z" fill="black"/>
<path d="M19.4162 29V6.95H23.3852V29H19.4162ZM33.7369 29.252C32.5189 29.252 31.4479 28.979 30.5239 28.433C29.6209 27.866 28.9174 27.089 28.4134 26.102C27.9094 25.115 27.6574 23.981 27.6574 22.7V13.376H31.6264V22.385C31.6264 23.561 31.9099 24.443 32.4769 25.031C33.0649 25.619 33.8944 25.913 34.9654 25.913C36.1834 25.913 37.1284 25.514 37.8004 24.716C38.4724 23.897 38.8084 22.763 38.8084 21.314V13.376H42.7774V29H38.8714V26.9525H38.3044C38.0524 27.4775 37.5799 27.992 36.8869 28.496C36.1939 29 35.1439 29.252 33.7369 29.252ZM47.194 29V13.376H51.1V15.077H51.667C51.94 14.552 52.3915 14.1005 53.0215 13.7225C53.6515 13.3235 54.481 13.124 55.51 13.124C56.623 13.124 57.5155 13.3445 58.1875 13.7855C58.8595 14.2055 59.374 14.762 59.731 15.455H60.298C60.655 14.783 61.159 14.2265 61.81 13.7855C62.461 13.3445 63.385 13.124 64.582 13.124C65.548 13.124 66.4195 13.334 67.1965 13.754C67.9945 14.153 68.6245 14.7725 69.0865 15.6125C69.5695 16.4315 69.811 17.471 69.811 18.731V29H65.842V19.0145C65.842 18.1535 65.6215 17.513 65.1805 17.093C64.7395 16.652 64.12 16.4315 63.322 16.4315C62.419 16.4315 61.7155 16.7255 61.2115 17.3135C60.7285 17.8805 60.487 18.6995 60.487 19.7705V29H56.518V19.0145C56.518 18.1535 56.2975 17.513 55.8565 17.093C55.4155 16.652 54.796 16.4315 53.998 16.4315C53.095 16.4315 52.3915 16.7255 51.8875 17.3135C51.4045 17.8805 51.163 18.6995 51.163 19.7705V29H47.194ZM83.4668 29.441C82.0598 29.441 80.9783 29.1995 80.2223 28.7165C79.4663 28.2335 78.9098 27.698 78.5528 27.11H77.9858V29H74.0798V6.95H78.0488V15.1715H78.6158C78.8468 14.7935 79.1513 14.4365 79.5293 14.1005C79.9283 13.7645 80.4428 13.4915 81.0728 13.2815C81.7238 13.0505 82.5218 12.935 83.4668 12.935C84.7268 12.935 85.8923 13.25 86.9633 13.88C88.0343 14.489 88.8953 15.392 89.5463 16.589C90.1973 17.786 90.5228 19.235 90.5228 20.936V21.44C90.5228 23.141 90.1973 24.59 89.5463 25.787C88.8953 26.984 88.0343 27.8975 86.9633 28.5275C85.8923 29.1365 84.7268 29.441 83.4668 29.441ZM82.2698 25.976C83.4878 25.976 84.5063 25.5875 85.3253 24.8105C86.1443 24.0125 86.5538 22.8575 86.5538 21.3455V21.0305C86.5538 19.5185 86.1443 18.374 85.3253 17.597C84.5273 16.799 83.5088 16.4 82.2698 16.4C81.0518 16.4 80.0333 16.799 79.2143 17.597C78.3953 18.374 77.9858 19.5185 77.9858 21.0305V21.3455C77.9858 22.8575 78.3953 24.0125 79.2143 24.8105C80.0333 25.5875 81.0518 25.976 82.2698 25.976ZM101.286 29.441C99.7322 29.441 98.3567 29.1155 97.1597 28.4645C95.9837 27.7925 95.0597 26.858 94.3877 25.661C93.7367 24.443 93.4112 23.015 93.4112 21.377V20.999C93.4112 19.361 93.7367 17.9435 94.3877 16.7465C95.0387 15.5285 95.9522 14.594 97.1282 13.943C98.3042 13.271 99.6692 12.935 101.223 12.935C102.756 12.935 104.09 13.2815 105.224 13.9745C106.358 14.6465 107.24 15.5915 107.87 16.8095C108.5 18.0065 108.815 19.403 108.815 20.999V22.3535H97.4432C97.4852 23.4245 97.8842 24.296 98.6402 24.968C99.3962 25.64 100.32 25.976 101.412 25.976C102.525 25.976 103.344 25.7345 103.869 25.2515C104.394 24.7685 104.793 24.233 105.066 23.645L108.311 25.346C108.017 25.892 107.586 26.4905 107.019 27.1415C106.473 27.7715 105.738 28.3175 104.814 28.7795C103.89 29.2205 102.714 29.441 101.286 29.441ZM97.4747 19.3925H104.783C104.699 18.4895 104.331 17.765 103.68 17.219C103.05 16.673 102.221 16.4 101.192 16.4C100.121 16.4 99.2702 16.673 98.6402 17.219C98.0102 17.765 97.6217 18.4895 97.4747 19.3925ZM112.347 29V13.376H116.253V15.14H116.82C117.051 14.51 117.429 14.048 117.954 13.754C118.5 13.46 119.13 13.313 119.844 13.313H121.734V16.841H119.781C118.773 16.841 117.944 17.114 117.293 17.66C116.642 18.185 116.316 19.004 116.316 20.117V29H112.347Z" fill="black"/>
</svg>
