<svg width="24" height="24" viewBox="0 0 24 24" fill="none" xmlns="http://www.w3.org/2000/svg">
<g clip-path="url(#clip0_418_2)">
<path d="M19.5556 15.1381C19.5577 15.133 19.5599 15.1278 19.562 15.1227C19.7557 14.6537 20.208 14.3438 20.7153 14.3438H21.1875C22.223 14.3438 23.0625 13.5043 23.0625 12.4688V11.5313C23.0625 10.4957 22.223 9.65625 21.1875 9.65625H20.7153C20.208 9.65625 19.7557 9.34627 19.562 8.87733C19.5599 8.87217 19.5577 8.86702 19.5556 8.86186C19.3609 8.39297 19.4609 7.85363 19.82 7.49456L20.1538 7.16072C20.886 6.42849 20.886 5.24133 20.1538 4.5091L19.4909 3.84614C18.7587 3.11391 17.5715 3.11391 16.8392 3.84614L16.5054 4.18003C16.1464 4.53905 15.607 4.63913 15.1381 4.44436C15.1329 4.4422 15.1278 4.44005 15.1227 4.43794C14.6537 4.2443 14.3437 3.79205 14.3437 3.28467V2.8125C14.3437 1.77694 13.5043 0.937502 12.4687 0.937502H11.5312C10.4957 0.937502 9.65625 1.77694 9.65625 2.8125V3.28467C9.65625 3.79205 9.34622 4.2443 8.87728 4.43794C8.87213 4.44005 8.86702 4.4422 8.86186 4.44436C8.39292 4.63913 7.85358 4.53905 7.49456 4.18003L7.16072 3.84614C6.42849 3.11391 5.24128 3.11391 4.50905 3.84614L3.84614 4.5091C3.11391 5.24133 3.11391 6.42849 3.84614 7.16072L4.17998 7.49456C4.53905 7.85363 4.63908 8.39297 4.44431 8.86186C4.4422 8.86702 4.44005 8.87217 4.43794 8.87733C4.2443 9.34627 3.792 9.65625 3.28467 9.65625H2.8125C1.77694 9.65625 0.9375 10.4957 0.9375 11.5313V12.4688C0.9375 13.5043 1.77694 14.3438 2.8125 14.3438H3.28467C3.792 14.3438 4.2443 14.6537 4.43794 15.1227C4.44005 15.1278 4.4422 15.133 4.44431 15.1381C4.63908 15.607 4.53905 16.1464 4.17998 16.5054L3.84614 16.8392C3.11391 17.5715 3.11391 18.7587 3.84614 19.4909L4.50905 20.1538C5.24128 20.886 6.42849 20.886 7.16072 20.1538L7.49456 19.82C7.85358 19.461 8.39292 19.3609 8.86186 19.5556C8.86702 19.5578 8.87213 19.5599 8.87728 19.562C9.34622 19.7557 9.65625 20.2079 9.65625 20.7153V21.1875C9.65625 22.2231 10.4957 23.0625 11.5312 23.0625H12.4687C13.5043 23.0625 14.3437 22.2231 14.3437 21.1875V20.7153C14.3437 20.2079 14.6537 19.7557 15.1227 19.562C15.1278 19.5599 15.1329 19.5578 15.1381 19.5556C15.607 19.3609 16.1464 19.461 16.5054 19.82L16.8392 20.1538C17.5715 20.886 18.7587 20.886 19.4909 20.1538L20.1538 19.4909" stroke="#F4BD14" stroke-width="1.875" stroke-miterlimit="10" stroke-linecap="round"/>
<path d="M9.98438 9.84375C9.98438 8.73056 10.8868 7.82813 12 7.82813C13.1132 7.82813 14.0156 8.73056 14.0156 9.84375C14.0156 10.9569 13.1132 11.8594 12 11.8594C10.8868 11.8594 9.98438 10.9569 9.98438 9.84375Z" stroke="#F4BD14" stroke-width="1.875" stroke-miterlimit="10" stroke-linecap="round" stroke-linejoin="round"/>
<path d="M14.9913 15.5156C15.3847 15.5156 15.6762 15.1526 15.596 14.7666C15.2512 13.1065 13.7832 11.8594 12.0245 11.8594H11.9755C10.2168 11.8594 8.74882 13.1065 8.40396 14.7666C8.32376 15.1526 8.61532 15.5156 9.00874 15.5156H14.9913Z" stroke="#F4BD14" stroke-width="1.875" stroke-miterlimit="10" stroke-linecap="round" stroke-linejoin="round"/>
</g>
<defs>
<clipPath id="clip0_418_2">
<rect width="24" height="24" fill="white"/>
</clipPath>
</defs>
</svg>
