<svg width="24" height="24" viewBox="0 0 24 24" fill="none" xmlns="http://www.w3.org/2000/svg">
<g clip-path="url(#clip0_419_28)">
<path d="M17.5094 24.0467C17.4919 24.0467 17.4743 24.0467 17.4567 24.0467C15.802 24.0385 13.9988 23.6184 12.0974 22.7983C11.622 22.5932 11.4029 22.0415 11.6079 21.5662C11.813 21.0907 12.3645 20.8715 12.8401 21.0766C14.4851 21.7861 16.0847 22.1648 17.4662 22.1717H17.5089C19.2372 22.1717 20.6801 21.6466 21.6855 20.6516L21.6921 20.6441C22.3037 19.9627 22.2665 18.9311 21.6074 18.2955C19.09 15.8681 17.9017 16.0443 16.8017 17.1169L15.0513 18.8544C14.7766 19.1268 14.3628 19.2028 14.0094 19.0454C13.9103 19.0012 11.5517 17.9341 8.89413 15.2763L8.77072 15.1531C6.11257 12.4949 5.04543 10.1365 5.0013 10.0375C4.84383 9.68407 4.91982 9.27025 5.19228 8.9956L6.93014 7.24474C8.00259 6.14482 8.17837 4.95646 5.75112 2.43949C5.11556 1.78031 4.08394 1.74314 3.40242 2.35471L3.39528 2.36112C2.39186 3.37498 1.86635 4.83323 1.87495 6.58061C1.8918 9.94866 3.80123 13.8602 6.98342 17.0458C6.98635 17.0488 6.98928 17.0515 6.99221 17.0545C7.59976 17.6622 8.29373 18.2661 9.0549 18.8496C9.46579 19.1647 9.54343 19.7531 9.2283 20.164C8.91336 20.575 8.32486 20.6527 7.91397 20.3375C7.09182 19.7071 6.33871 19.0518 5.67532 18.3893C5.67239 18.3864 5.66927 18.3834 5.66634 18.3803C2.13753 14.8517 0.019358 10.4441 0.000131944 6.58995C-0.0112206 4.32127 0.710217 2.39463 2.08644 1.0184C2.09816 1.0065 2.11043 0.994967 2.12288 0.983797L2.1498 0.959627C2.84139 0.338898 3.73311 0.0157165 4.66146 0.0492248C5.58981 0.0825501 6.45608 0.46927 7.10098 1.13797C8.36349 2.44736 9.39438 4.59025 9.39438 4.59025C9.39438 4.59025 9.4321 7.3665 8.26864 8.55779C8.267 8.55944 8.26517 8.56127 8.26333 8.5631L7.00521 9.83056C7.45126 10.6219 8.43179 12.1626 10.0962 13.8268L10.2195 13.9503C11.8951 15.6257 13.4269 16.5998 14.215 17.0426L15.4836 15.7833C15.4854 15.7815 15.4872 15.7797 15.4891 15.778C16.6803 14.6144 18.0152 14.2357 19.4566 14.6523C20.5025 14.9544 21.5995 15.6834 22.9087 16.9457C23.5774 17.5906 23.9641 18.4569 23.9976 19.3852C24.0311 20.3136 23.7078 21.2055 23.0872 21.8967L23.0631 21.9238C23.0517 21.9362 23.0402 21.9485 23.0283 21.9604C21.6628 23.3258 19.7554 24.0467 17.5094 24.0467ZM24 5.90623C24 2.67533 21.3715 0.0468445 18.1406 0.0468445C14.9097 0.0468445 12.2812 2.67533 12.2812 5.90623C12.2812 9.13714 14.9097 11.7656 18.1406 11.7656C21.3715 11.7656 24 9.13714 24 5.90623ZM22.125 5.90623C22.125 8.10314 20.3375 9.89062 18.1406 9.89062C15.9435 9.89062 14.1562 8.10314 14.1562 5.90623C14.1562 3.70933 15.9435 1.92185 18.1406 1.92185C20.3375 1.92185 22.125 3.70933 22.125 5.90623ZM20.4375 5.90623C20.4375 5.38841 20.0178 4.96873 19.5 4.96873H18.9796V3.98673C18.9796 3.46891 18.5599 3.04923 18.0421 3.04923C17.5245 3.04923 17.1094 3.46891 17.1094 3.98673V5.90623C17.1094 6.42406 17.5245 6.84374 18.0421 6.84374H19.5C20.0178 6.84374 20.4375 6.42406 20.4375 5.90623Z" fill="#F4BD14"/>
</g>
<defs>
<clipPath id="clip0_419_28">
<rect width="24" height="24" fill="white"/>
</clipPath>
</defs>
</svg>
