<svg width="25" height="24" viewBox="0 0 25 24" fill="none" xmlns="http://www.w3.org/2000/svg">
<path d="M19.8364 11.0625C20.3542 11.0625 20.7739 10.6428 20.7739 10.125V3.75C20.7739 1.68219 19.0917 0 17.0239 0H8.02393C5.95612 0 4.27393 1.68219 4.27393 3.75V17.4375C4.27393 19.5053 5.95612 21.1875 8.02393 21.1875H8.21143V23.0625C8.21143 23.5803 8.6311 24 9.14893 24C9.66675 24 10.0864 23.5803 10.0864 23.0625V21.1875H15.0083V23.0625C15.0083 23.5803 15.428 24 15.9458 24C16.4636 24 16.8833 23.5803 16.8833 23.0625V21.1875H17.0239C19.0917 21.1875 20.7739 19.5053 20.7739 17.4375V15.0938C20.7739 14.6364 20.444 14.2458 19.9932 14.1694C19.8769 14.1497 17.0972 13.6875 12.5239 13.6875C9.57611 13.6875 7.37335 13.8796 6.14893 14.0213V3.75C6.14893 2.71619 6.99011 1.875 8.02393 1.875H17.0239C18.0577 1.875 18.8989 2.71619 18.8989 3.75V10.125C18.8989 10.6428 19.3186 11.0625 19.8364 11.0625V11.0625ZM12.5239 15.5625C15.553 15.5625 17.7902 15.7764 18.8989 15.9109V17.4375C18.8989 18.4713 18.0577 19.3125 17.0239 19.3125H8.02393C6.99011 19.3125 6.14893 18.4713 6.14893 17.4375V15.9106C7.25507 15.7758 9.48621 15.5625 12.5239 15.5625V15.5625ZM11.5864 17.4375C11.5864 16.9197 12.0061 16.5 12.5239 16.5C13.0417 16.5 13.4614 16.9197 13.4614 17.4375C13.4614 17.9553 13.0417 18.375 12.5239 18.375C12.0061 18.375 11.5864 17.9553 11.5864 17.4375ZM13.5497 4.78125C13.5497 4.26343 13.13 3.84375 12.6122 3.84375H12.5239C12.3057 3.84375 12.0942 3.91992 11.9261 4.05908C11.6033 4.32623 9.33643 6.68225 9.33643 8.61621C9.33643 10.3786 10.7663 11.8125 12.5239 11.8125C14.2816 11.8125 15.7114 10.3786 15.7114 8.61621C15.7114 7.35315 14.938 6.64911 14.3733 6.13495C13.832 5.64221 13.5497 5.35822 13.5497 4.78125ZM12.5239 9.9375C11.8003 9.9375 11.2114 9.34479 11.2114 8.61621C11.2114 8.06708 11.7119 7.22992 12.2136 6.55371C12.4888 6.9549 12.825 7.26086 13.1111 7.52142C13.6376 8.00061 13.8364 8.21924 13.8364 8.61621C13.8364 9.34479 13.2476 9.9375 12.5239 9.9375Z" fill="#F4BD14"/>
</svg>
