<svg width="24" height="24" viewBox="0 0 24 24" fill="none" xmlns="http://www.w3.org/2000/svg">
<g clip-path="url(#clip0_418_56)">
<path d="M22.5993 7.90983C21.765 7.23966 20.9115 7.16681 20.3399 7.17188H8.90625V5.625C8.90625 5.14139 9.28655 4.731 9.77208 4.69073C9.77658 4.69036 9.78112 4.68994 9.78562 4.68952L16.9932 3.98606C18.0215 3.8857 18.7969 3.03094 18.7969 1.99777C18.7969 0.896203 17.9007 0 16.7991 0H5.625C2.52338 0 0 2.52338 0 5.625V23.0625C0 23.5803 0.419719 24 0.9375 24H8.01562C8.53341 24 8.95312 23.5803 8.95312 23.0625V20.7656C8.95312 20.2478 8.53341 19.8281 8.01562 19.8281C7.49784 19.8281 7.07812 20.2478 7.07812 20.7656V22.125H1.875V9.04688H20.3438C20.3465 9.04688 20.3492 9.04687 20.352 9.04683C20.8341 9.04266 21.1251 9.13059 21.425 9.37158C21.8633 9.7237 22.125 10.2852 22.125 10.8735V11.8788L21.5968 12.7508H20.6376L19.9738 11.6549C19.8038 11.3744 19.4997 11.2031 19.1718 11.2031L8.01553 11.2045C7.4978 11.2045 7.07812 11.6242 7.07812 12.142V16.0781C7.07812 16.5959 7.49784 17.0156 8.01562 17.0156C8.53341 17.0156 8.95312 16.5959 8.95312 16.0781V13.0793L18.6437 13.0782L19.3075 14.174C19.4774 14.4545 19.7814 14.6258 20.1093 14.6258H22.125C22.4528 14.6258 22.7569 14.4545 22.9268 14.174L23.8643 12.6263C23.9531 12.4799 24 12.3119 24 12.1406V10.8735C24 9.70519 23.4894 8.625 22.5993 7.90983ZM7.77886 3.71864C7.29675 4.23994 7.03125 4.91695 7.03125 5.625V7.17188H1.875V5.625C1.875 3.55725 3.55725 1.875 5.625 1.875H16.7991C16.8668 1.875 16.9219 1.93008 16.9219 1.99777C16.9219 2.06123 16.8742 2.11373 16.8111 2.11992L9.60966 2.82277C8.90766 2.88286 8.25778 3.20081 7.77886 3.71864Z" fill="#F4BD14"/>
<path d="M21.8782 17.47C21.7006 17.2765 21.4501 17.1664 21.1875 17.1664C20.9249 17.1664 20.6743 17.2765 20.4968 17.47C20.4763 17.4923 19.9889 18.0249 19.4963 18.6908C18.4912 20.0494 18.375 20.7336 18.375 21.1301V21.1875C18.375 22.7383 19.6367 24 21.1875 24C22.7383 24 24 22.7383 24 21.1875V21.1301C24 20.7336 23.8838 20.0494 22.8787 18.6908C22.3861 18.0249 21.8987 17.4923 21.8782 17.47ZM22.125 21.1875C22.125 21.7045 21.7044 22.125 21.1875 22.125C20.6706 22.125 20.25 21.7045 20.25 21.1875V21.1354C20.2535 21.1074 20.3125 20.7345 21.024 19.7784C21.0788 19.7048 21.1336 19.6329 21.1875 19.5636C21.2414 19.6329 21.2962 19.7048 21.351 19.7784C22.0625 20.7345 22.1215 21.1074 22.125 21.1354V21.1875Z" fill="#F4BD14"/>
</g>
<defs>
<clipPath id="clip0_418_56">
<rect width="24" height="24" fill="white"/>
</clipPath>
</defs>
</svg>
